# xmcd
#
# Track frame offsets: 
#        150
#        17848
#        38013
#        52453
#        78665
#        97251
#        128786
#        152681
#        170622
#        198085
#        214483
#        233729
#        263562
#        280462
#        309172
#
# Disc length: 4340 seconds
#
# Revision: 0
# Processed by: cddbd v1.5.2PL0 Copyright (c) Steve Scherf et al.
# Submitted via: ExactAudioCopyFreeDBPlugin 1.0
#
DISCID=d510f20f
DTITLE=BRONCO - Country Home and Ace Of Sunlight
DYEAR=1900
DGENRE=Country
TTITLE0=Time
TTITLE1=Civil Of You Stranger
TTITLE2=Love
TTITLE3=Home
TTITLE4=Well Anyhow
TTITLE5=Misfit On Your Stair
TTITLE6=Bumpers West
TTITLE7=Amber Moon
TTITLE8=Time Slips Away
TTITLE9=Some Uncertainty
TTITLE10=Woman
TTITLE11=New Day Avenue
TTITLE12=Discernible
TTITLE13=Sudden Street
TTITLE14=Joys And Fears
EXTD=
EXTT0=
EXTT1=
EXTT2=
EXTT3=
EXTT4=
EXTT5=
EXTT6=
EXTT7=
EXTT8=
EXTT9=
EXTT10=
EXTT11=
EXTT12=
EXTT13=
EXTT14=
PLAYORDER=
